<svg width="110" height="96" viewBox="0 0 110 96" fill="none" xmlns="http://www.w3.org/2000/svg">
<path d="M6.792 74.176C9.288 74.176 11.2 74.624 12.528 75.52C13.856 76.4 14.52 77.776 14.52 79.648C14.52 80.816 14.248 81.768 13.704 82.504C13.176 83.224 12.408 83.792 11.4 84.208C11.736 84.624 12.088 85.104 12.456 85.648C12.824 86.176 13.184 86.736 13.536 87.328C13.904 87.904 14.256 88.512 14.592 89.152C14.928 89.776 15.24 90.392 15.528 91H11.328C11.024 90.456 10.712 89.904 10.392 89.344C10.088 88.784 9.768 88.24 9.432 87.712C9.112 87.184 8.792 86.688 8.472 86.224C8.152 85.744 7.832 85.312 7.512 84.928H5.664V91H1.92V74.608C2.736 74.448 3.576 74.336 4.44 74.272C5.32 74.208 6.104 74.176 6.792 74.176ZM7.008 77.368C6.736 77.368 6.488 77.376 6.264 77.392C6.056 77.408 5.856 77.424 5.664 77.44V81.952H6.72C8.128 81.952 9.136 81.776 9.744 81.424C10.352 81.072 10.656 80.472 10.656 79.624C10.656 78.808 10.344 78.232 9.72 77.896C9.112 77.544 8.208 77.368 7.008 77.368ZM16.4784 84.784C16.4784 83.664 16.6464 82.688 16.9824 81.856C17.3344 81.008 17.7904 80.304 18.3504 79.744C18.9104 79.184 19.5504 78.76 20.2704 78.472C21.0064 78.184 21.7584 78.04 22.5264 78.04C24.3184 78.04 25.7344 78.592 26.7744 79.696C27.8144 80.784 28.3344 82.392 28.3344 84.52C28.3344 84.728 28.3264 84.96 28.3104 85.216C28.2944 85.456 28.2784 85.672 28.2624 85.864H20.1504C20.2304 86.6 20.5744 87.184 21.1824 87.616C21.7904 88.048 22.6064 88.264 23.6304 88.264C24.2864 88.264 24.9264 88.208 25.5504 88.096C26.1904 87.968 26.7104 87.816 27.1104 87.64L27.5904 90.544C27.3984 90.64 27.1424 90.736 26.8224 90.832C26.5024 90.928 26.1424 91.008 25.7424 91.072C25.3584 91.152 24.9424 91.216 24.4944 91.264C24.0464 91.312 23.5984 91.336 23.1504 91.336C22.0144 91.336 21.0224 91.168 20.1744 90.832C19.3424 90.496 18.6464 90.04 18.0864 89.464C17.5424 88.872 17.1344 88.176 16.8624 87.376C16.6064 86.576 16.4784 85.712 16.4784 84.784ZM24.8784 83.416C24.8624 83.112 24.8064 82.816 24.7104 82.528C24.6304 82.24 24.4944 81.984 24.3024 81.76C24.1264 81.536 23.8944 81.352 23.6064 81.208C23.3344 81.064 22.9904 80.992 22.5744 80.992C22.1744 80.992 21.8304 81.064 21.5424 81.208C21.2544 81.336 21.0144 81.512 20.8224 81.736C20.6304 81.96 20.4784 82.224 20.3664 82.528C20.2704 82.816 20.1984 83.112 20.1504 83.416H24.8784ZM34.1421 84.592C34.1421 85.696 34.3901 86.584 34.8861 87.256C35.3821 87.928 36.1181 88.264 37.0941 88.264C37.4141 88.264 37.7101 88.256 37.9821 88.24C38.2541 88.208 38.4781 88.176 38.6541 88.144V81.64C38.4301 81.496 38.1341 81.376 37.7661 81.28C37.4141 81.184 37.0541 81.136 36.6861 81.136C34.9901 81.136 34.1421 82.288 34.1421 84.592ZM42.2301 90.592C41.9101 90.688 41.5421 90.784 41.1261 90.88C40.7101 90.96 40.2701 91.032 39.8061 91.096C39.3581 91.16 38.8941 91.208 38.4141 91.24C37.9501 91.288 37.5021 91.312 37.0701 91.312C36.0301 91.312 35.1021 91.16 34.2861 90.856C33.4701 90.552 32.7821 90.12 32.2221 89.56C31.6621 88.984 31.2301 88.296 30.9261 87.496C30.6381 86.68 30.4941 85.768 30.4941 84.76C30.4941 83.736 30.6221 82.816 30.8781 82C31.1341 81.168 31.5021 80.464 31.9821 79.888C32.4621 79.312 33.0461 78.872 33.7341 78.568C34.4381 78.264 35.2381 78.112 36.1341 78.112C36.6301 78.112 37.0701 78.16 37.4541 78.256C37.8541 78.352 38.2541 78.488 38.6541 78.664V72.952L42.2301 72.376V90.592ZM62.6961 87.784V91H51.5841V74.368H55.3281V87.784H62.6961ZM68.4435 91H64.8675V78.376H68.4435V91ZM68.7795 74.728C68.7795 75.384 68.5635 75.904 68.1315 76.288C67.7155 76.656 67.2195 76.84 66.6435 76.84C66.0675 76.84 65.5635 76.656 65.1315 76.288C64.7155 75.904 64.5075 75.384 64.5075 74.728C64.5075 74.072 64.7155 73.56 65.1315 73.192C65.5635 72.808 66.0675 72.616 66.6435 72.616C67.2195 72.616 67.7155 72.808 68.1315 73.192C68.5635 73.56 68.7795 74.072 68.7795 74.728ZM74.853 84.28C74.853 86.28 75.661 87.28 77.277 87.28C77.645 87.28 77.989 87.232 78.309 87.136C78.629 87.04 78.901 86.928 79.125 86.8V81.088C78.949 81.056 78.741 81.032 78.501 81.016C78.261 80.984 77.981 80.968 77.661 80.968C76.717 80.968 76.013 81.28 75.549 81.904C75.085 82.528 74.853 83.32 74.853 84.28ZM82.701 89.416C82.701 91.48 82.173 93.008 81.117 94C80.077 95.008 78.461 95.512 76.269 95.512C75.501 95.512 74.733 95.44 73.965 95.296C73.197 95.168 72.485 94.992 71.829 94.768L72.453 91.768C73.013 91.992 73.597 92.168 74.205 92.296C74.829 92.424 75.533 92.488 76.317 92.488C77.341 92.488 78.061 92.264 78.477 91.816C78.909 91.368 79.125 90.792 79.125 90.088V89.632C78.741 89.808 78.341 89.944 77.925 90.04C77.525 90.12 77.085 90.16 76.605 90.16C74.861 90.16 73.525 89.648 72.597 88.624C71.669 87.584 71.205 86.136 71.205 84.28C71.205 83.352 71.349 82.512 71.637 81.76C71.925 80.992 72.341 80.336 72.885 79.792C73.445 79.248 74.125 78.832 74.925 78.544C75.725 78.24 76.629 78.088 77.637 78.088C78.069 78.088 78.509 78.112 78.957 78.16C79.421 78.192 79.877 78.24 80.325 78.304C80.773 78.368 81.197 78.448 81.597 78.544C82.013 78.624 82.381 78.712 82.701 78.808V89.416ZM86.055 91V72.952L89.631 72.376V78.424C89.871 78.344 90.175 78.272 90.543 78.208C90.927 78.128 91.295 78.088 91.647 78.088C92.671 78.088 93.519 78.232 94.191 78.52C94.879 78.792 95.423 79.184 95.823 79.696C96.239 80.208 96.527 80.816 96.687 81.52C96.863 82.224 96.951 83.008 96.951 83.872V91H93.375V84.304C93.375 83.152 93.223 82.336 92.919 81.856C92.631 81.376 92.087 81.136 91.287 81.136C90.967 81.136 90.663 81.168 90.375 81.232C90.103 81.28 89.855 81.336 89.631 81.4V91H86.055ZM100.068 75.232L103.644 74.656V78.376H107.94V81.352H103.644V85.792C103.644 86.544 103.772 87.144 104.028 87.592C104.3 88.04 104.836 88.264 105.636 88.264C106.02 88.264 106.412 88.232 106.812 88.168C107.228 88.088 107.604 87.984 107.94 87.856L108.444 90.64C108.012 90.816 107.532 90.968 107.004 91.096C106.476 91.224 105.828 91.288 105.06 91.288C104.084 91.288 103.276 91.16 102.636 90.904C101.996 90.632 101.484 90.264 101.1 89.8C100.716 89.32 100.444 88.744 100.284 88.072C100.14 87.4 100.068 86.656 100.068 85.84V75.232Z" fill="#ED5353"/>
<path d="M16.3036 20.4747C13.9268 18.2846 13.7754 14.5825 15.9654 12.2057L27.2116 0.000338276L42.4825 14.0712L31.2363 26.2765C29.0462 28.6533 25.3441 28.8047 22.9673 26.6147L16.3036 20.4747Z" fill="#ED5353"/>
<rect x="29.7422" y="46.1292" width="40.8065" height="19.5162" transform="rotate(-90 29.7422 46.1292)" fill="#ED5353"/>
<rect x="63.4517" y="46.1292" width="40.8065" height="17.742" transform="rotate(-90 63.4517 46.1292)" fill="#ED5353"/>
<path d="M91.4808 23.1424C95.5424 19.4 95.8011 13.0737 92.0587 9.0121L83.7551 0.000295292L68.7739 13.8042L77.0776 22.816C80.82 26.8776 87.1463 27.1363 91.2079 23.3939L91.4808 23.1424Z" fill="#ED5353"/>
<rect width="58.5485" height="19.5162" rx="1" transform="matrix(-1 8.74228e-08 8.74228e-08 1 84.7422 0)" fill="#ED5353"/>
<rect width="58.5485" height="5.32259" transform="matrix(-1 8.74228e-08 8.74228e-08 1 84.7422 49.6775)" fill="#ED5353"/>
</svg>
